<svg width="24" height="24" viewBox="0 0 24 24" fill="none" xmlns="http://www.w3.org/2000/svg">
<mask id="mask0_80_26" style="mask-type:alpha" maskUnits="userSpaceOnUse" x="0" y="0" width="25" height="24">
<rect x="0.00418091" width="24" height="24" fill="#D9D9D9"/>
</mask>
<g mask="url(#mask0_80_26)">
<path d="M19.6042 21L13.3042 14.7C12.8042 15.1 12.2292 15.4167 11.5792 15.65C10.9292 15.8833 10.2375 16 9.50418 16C7.68751 16 6.15001 15.3708 4.89168 14.1125C3.63335 12.8542 3.00418 11.3167 3.00418 9.5C3.00418 7.68333 3.63335 6.14583 4.89168 4.8875C6.15001 3.62917 7.68751 3 9.50418 3C11.3208 3 12.8583 3.62917 14.1167 4.8875C15.375 6.14583 16.0042 7.68333 16.0042 9.5C16.0042 10.2333 15.8875 10.925 15.6542 11.575C15.4208 12.225 15.1042 12.8 14.7042 13.3L21.0042 19.6L19.6042 21ZM9.50418 14C10.7542 14 11.8167 13.5625 12.6917 12.6875C13.5667 11.8125 14.0042 10.75 14.0042 9.5C14.0042 8.25 13.5667 7.1875 12.6917 6.3125C11.8167 5.4375 10.7542 5 9.50418 5C8.25418 5 7.19168 5.4375 6.31668 6.3125C5.44168 7.1875 5.00418 8.25 5.00418 9.5C5.00418 10.75 5.44168 11.8125 6.31668 12.6875C7.19168 13.5625 8.25418 14 9.50418 14Z" fill="#BBBBBB"/>
</g>
</svg>
